<svg width="57" height="57" viewBox="0 0 57 57" fill="none" xmlns="http://www.w3.org/2000/svg">
<path d="M56.9857 57V56.9977H57V36.0929C57 25.8661 54.7983 17.9883 42.8426 17.9883C37.0951 17.9883 33.2381 21.1422 31.6635 24.1324H31.4973V18.943H20.1614V56.9977H31.9651V38.1544C31.9651 33.193 32.9056 28.3955 39.0498 28.3955C45.1036 28.3955 45.1938 34.0575 45.1938 38.4727V57H56.9857Z" fill="white"/>
<path d="M0.94043 18.9453H12.7585V56.9999H0.94043V18.9453Z" fill="white"/>
<path d="M6.84475 0C3.06612 0 0 3.06612 0 6.84475C0 10.6234 3.06612 13.7536 6.84475 13.7536C10.6234 13.7536 13.6895 10.6234 13.6895 6.84475C13.6871 3.06612 10.621 0 6.84475 0Z" fill="white"/>
</svg>
