<svg width="370" height="171" viewBox="0 0 370 171" fill="none" xmlns="http://www.w3.org/2000/svg">
<path fill-rule="evenodd" clip-rule="evenodd" d="M104.776 104.319C91.326 104.322 70.184 110.961 70.184 136.79C70.184 161.882 90.056 170 104.776 170C119.496 170 139.368 161.882 139.368 136.79C139.368 110.961 118.226 104.322 104.776 104.319ZM81.224 136.79C81.224 118.341 97.416 114.651 104.776 114.651C112.136 114.651 128.328 118.341 128.328 136.79C128.328 154.502 113.608 160.406 104.776 160.406C95.944 160.406 81.224 154.502 81.224 136.79Z" fill="#00B183"/>
<path d="M1 104.327H11.4512L47.2839 152.089V104.327H57.7351V170H47.2839L11.4512 122.238V169.863L1 170V104.327Z" fill="#00B183"/>
<path d="M151.144 104.319H163.656L185.012 147.146L207.08 104.319H219.592V169.262H210.024V119.817L188.68 162.62H182.056L160.712 119.817V169.262H151.144V104.319Z" fill="#00B183"/>
<path d="M232.104 169.262H243.144L263.764 116.502L263.016 114.651H264.488L263.764 116.502L285.096 169.262H295.4L270.044 104.319H258.6L232.104 169.262Z" fill="#00B183"/>
<path fill-rule="evenodd" clip-rule="evenodd" d="M309.384 104.319H334.408C348.693 104.319 369 110.813 369 136.79C369 162.768 346.675 169.262 336.616 169.262H309.384V104.319ZM319.688 113.913V136.79V159.668C340.296 159.668 357.96 160.406 358.696 136.79C357.96 113.175 340.296 113.913 319.688 113.913Z" fill="#00B183"/>
<path fill-rule="evenodd" clip-rule="evenodd" d="M250.504 79.9651H261.544V91.0349H250.504V79.9651ZM260.072 89.559V81.4411H251.976V89.559H260.072Z" fill="#00B183"/>
<path fill-rule="evenodd" clip-rule="evenodd" d="M265.224 79.9651H276.264V91.0349H265.224V79.9651ZM274.792 81.4411H266.696V89.559H274.792V81.4411Z" fill="#00B183"/>
<path fill-rule="evenodd" clip-rule="evenodd" d="M265.224 65.2052H276.264V76.2751H265.224V65.2052ZM274.792 66.6812H266.696V74.7991H274.792V66.6812Z" fill="#00B183"/>
<path fill-rule="evenodd" clip-rule="evenodd" d="M250.504 65.2052H261.544V76.2751H250.504V65.2052ZM260.072 66.6812H251.976V74.7991H260.072V66.6812Z" fill="#00B183"/>
<path d="M185.736 148.598L185.012 147.146M184.264 148.598L185.012 147.146M185.012 147.146L163.656 104.319H151.144V169.262H160.712V119.817L182.056 162.62H188.68L210.024 119.817V169.262H219.592V104.319H207.08L185.012 147.146ZM263.764 116.502L243.144 169.262H232.104L258.6 104.319H270.044L295.4 169.262H285.096L263.764 116.502ZM263.764 116.502L263.016 114.651H264.488L263.764 116.502ZM1 104.327H11.4512L47.2839 152.089V104.327H57.7351V170H47.2839L11.4512 122.238V169.863L1 170V104.327ZM104.776 104.319C91.326 104.322 70.184 110.961 70.184 136.79C70.184 161.882 90.056 170 104.776 170C119.496 170 139.368 161.882 139.368 136.79C139.368 110.961 118.226 104.322 104.776 104.319ZM104.776 114.651C97.416 114.651 81.224 118.341 81.224 136.79C81.224 154.502 95.944 160.406 104.776 160.406C113.608 160.406 128.328 154.502 128.328 136.79C128.328 118.341 112.136 114.651 104.776 114.651ZM319.688 136.79V113.913C340.296 113.913 357.96 113.175 358.696 136.79C357.96 160.406 340.296 159.668 319.688 159.668V136.79ZM309.384 104.319H334.408C348.693 104.319 369 110.813 369 136.79C369 162.768 346.675 169.262 336.616 169.262H309.384V104.319ZM251.976 66.6812H260.072V74.7991H251.976V66.6812ZM250.504 65.2052H261.544V76.2751H250.504V65.2052ZM265.224 65.2052H276.264V76.2751H265.224V65.2052ZM266.696 66.6812H274.792V74.7991H266.696V66.6812ZM260.072 81.4411V89.559H251.976V81.4411H260.072ZM250.504 79.9651H261.544V91.0349H250.504V79.9651ZM265.224 79.9651H276.264V91.0349H265.224V79.9651ZM266.696 81.4411H274.792V89.559H266.696V81.4411ZM193.832 89.559L279.944 2.47598L365.32 88.083H332.936L246.824 1.73799L160.712 88.083L161.448 88.821L246.824 3.21397L332.2 88.821H367.528L331.464 53.3974L279.944 1L193.096 88.821L193.832 89.559Z" stroke="#00B183"/>
</svg>
